# xmcd
#
# Track frame offsets: 
#        150
#        22374
#        41296
#        59757
#        72063
#        99051
#        116662
#        132850
#        145220
#        162067
#        182132
#        198488
#        213990
#        227905
#
# Disc length: 3294 seconds
#
# Revision: 0
# Processed by: cddbd v1.5.2PL0 Copyright (c) Steve Scherf et al.
# Submitted via: ExactAudioCopy v0.95b4
#
DISCID=c80cdc0e
DTITLE=Sic Mile Grove - Steel Mule
DYEAR=2008
DGENRE=Country
TTITLE0=Steel Mule
TTITLE1=What I'll Become
TTITLE2=Climb That Mountain
TTITLE3=City on the State Line
TTITLE4=Making Up For Leaving You
TTITLE5=Dark Side of Town
TTITLE6=Hand Me Down
TTITLE7=Write Me Off
TTITLE8=Champion
TTITLE9=Shotgun Lie
TTITLE10=Atom Bomb
TTITLE11=Never Going Back
TTITLE12=Next Time Around
TTITLE13=Steel Mule (Alternate Version)
EXTD=
EXTT0=
EXTT1=
EXTT2=
EXTT3=
EXTT4=
EXTT5=
EXTT6=
EXTT7=
EXTT8=
EXTT9=
EXTT10=
EXTT11=
EXTT12=
EXTT13=
PLAYORDER=
